<?xml version="1.0" standalone="no"?><!DOCTYPE svg PUBLIC "-//W3C//DTD SVG 1.1//EN" "http://www.w3.org/Graphics/SVG/1.1/DTD/svg11.dtd"><svg class="icon" width="48px" height="48.00px" viewBox="0 0 1024 1024" version="1.1" xmlns="http://www.w3.org/2000/svg"><path fill="#000000" d="M908.8 76.8H115.2a64 64 0 0 0 0 128h793.6a64 64 0 1 0 0-128z m0 742.4H115.2a64 64 0 0 0 0 128h793.6a64 64 0 0 0 0-128zM55.808 542.208l152.9344 152.9344a42.6496 42.6496 0 0 0 72.8576-30.1568V359.0144a42.6496 42.6496 0 0 0-72.8576-30.208L55.808 481.8944a42.6496 42.6496 0 0 0 0 60.3136zM908.8 332.8h-486.4a64 64 0 0 0 0 128h486.4a64 64 0 1 0 0-128z m0 230.4h-486.4a64 64 0 0 0 0 128h486.4a64 64 0 0 0 0-128z"  /></svg>