<?xml version="1.0" standalone="no"?><!DOCTYPE svg PUBLIC "-//W3C//DTD SVG 1.1//EN" "http://www.w3.org/Graphics/SVG/1.1/DTD/svg11.dtd"><svg class="icon" width="48px" height="48.00px" viewBox="0 0 1024 1024" version="1.1" xmlns="http://www.w3.org/2000/svg"><path fill="#2c2c2c" d="M508.2112 512m-53.2992 0a53.2992 53.2992 0 1 0 106.5984 0 53.2992 53.2992 0 1 0-106.5984 0Z"  /><path fill="#2c2c2c" d="M327.8336 512m-53.2992 0a53.2992 53.2992 0 1 0 106.5984 0 53.2992 53.2992 0 1 0-106.5984 0Z"  /><path fill="#2c2c2c" d="M687.3088 512m-53.2992 0a53.2992 53.2992 0 1 0 106.5984 0 53.2992 53.2992 0 1 0-106.5984 0Z"  /><path fill="#2c2c2c" d="M508.2112 923.4432A411.4432 411.4432 0 1 1 919.7056 512a411.904 411.904 0 0 1-411.4944 411.4432z m0-751.2064A339.7632 339.7632 0 1 0 848.0256 512a340.1728 340.1728 0 0 0-339.8144-339.7632z"  /></svg>