<?xml version="1.0" standalone="no"?><!DOCTYPE svg PUBLIC "-//W3C//DTD SVG 1.1//EN" "http://www.w3.org/Graphics/SVG/1.1/DTD/svg11.dtd"><svg class="icon" width="48px" height="48.00px" viewBox="0 0 1024 1024" version="1.1" xmlns="http://www.w3.org/2000/svg"><path fill="#2c2c2c" d="M115.2 76.8h793.6a64 64 0 0 1 0 128H115.2a64 64 0 1 1 0-128z m0 742.4h793.6a64 64 0 0 1 0 128H115.2a64 64 0 0 1 0-128z m852.992-276.992l-152.9344 152.9344a42.6496 42.6496 0 0 1-72.8576-30.1568V359.0144a42.6496 42.6496 0 0 1 72.8576-30.208l152.9856 153.0368a42.6496 42.6496 0 0 1 0 60.3136zM115.2 332.8h486.4a64 64 0 0 1 0 128h-486.4a64 64 0 1 1 0-128z m0 230.4h486.4a64 64 0 0 1 0 128h-486.4a64 64 0 0 1 0-128z"  /></svg>